<svg width="44" height="44" viewBox="0 0 44 44" fill="none" xmlns="http://www.w3.org/2000/svg">
<path d="M43 16.9064C43 20.9233 42.0914 24.1103 40.2607 26.5187C38.4284 28.9292 35.7598 30.4438 32.4619 31.2833L32.4688 31.8566C32.4688 31.8637 32.4688 31.8709 32.4688 31.8781L32.4648 32.3058L32.459 39.9933C32.4587 40.7443 32.1687 41.4611 31.6572 42.0089C31.1468 42.5555 30.4518 42.8962 29.709 42.9796C29.6909 42.9816 29.6724 42.9835 29.6543 42.9845L29.4072 42.9982C29.3884 42.9992 29.3695 43.0001 29.3506 43.0001H16.7012C15.9538 43 15.2249 42.739 14.6543 42.256C14.0826 41.7719 13.7075 41.0957 13.6152 40.3507C13.6128 40.3307 13.6106 40.3102 13.6094 40.2902L13.5947 40.0558C13.5934 40.0349 13.5928 40.0132 13.5928 39.9923V39.6144C11.9921 39.6895 10.5632 39.4306 9.25977 38.8331C7.66638 38.1027 6.33963 36.904 5.13867 35.3644C5.1326 35.3566 5.12693 35.3479 5.12109 35.34L3.99316 33.8029V33.8019C3.71192 33.4234 3.50273 33.1737 3.3457 33.0118C3.23371 32.8964 3.16914 32.8475 3.14551 32.8312L3.10352 32.8156V32.8146C2.36947 32.5718 1.74398 32.0703 1.36816 31.3917C0.98153 30.6934 0.89416 29.8728 1.12988 29.1095C1.36517 28.3476 1.89881 27.7173 2.59961 27.3409C3.2117 27.0123 3.91626 26.8957 4.59863 27.0011L4.88965 27.0597L4.91406 27.0665C6.34861 27.4665 7.35213 28.238 8.32812 29.3878L8.74609 29.9044L8.76172 29.9249L9.89355 31.4659C10.6683 32.5133 11.2631 33.0787 11.876 33.3644C12.3161 33.5696 12.844 33.6645 13.5918 33.5939V33.1495L13.5605 32.8663L13.5195 32.4103C13.4927 32.0271 13.488 31.6428 13.5029 31.2589C10.511 30.4853 8.04005 29.1514 6.24707 27.0822C4.32567 24.8646 3.27155 21.9066 3.08203 18.1652C3.08175 18.1596 3.08124 18.1541 3.08105 18.1486L3.06055 17.5265C3.06033 17.52 3.05966 17.5134 3.05957 17.507L3.05176 16.921C3.05168 16.9159 3.05078 16.9105 3.05078 16.9054C3.05345 14.526 3.782 12.2026 5.14062 10.2169L5.15332 10.1974L5.45898 9.77063C5.05468 7.84707 5.17443 5.85646 5.80664 3.99036L5.81738 3.96204L6.02734 3.39563C6.03407 3.37758 6.04205 3.35955 6.0498 3.34192L6.27344 2.83411L6.28418 2.81067C6.61677 2.10543 7.21268 1.5615 7.93652 1.27551L8.00684 1.25012L8.31055 1.15637L8.4248 1.12805L8.74902 1.0675C8.76476 1.06459 8.78101 1.06185 8.79688 1.05969C10.6444 0.80837 13.013 1.34274 15.8613 2.80676L16.4375 3.11243L16.4502 3.11829L17.0234 3.44153L17.0439 3.45422L17.0498 3.45813L17.5107 3.36633C17.5155 3.36539 17.5206 3.36428 17.5254 3.3634C20.8255 2.7562 24.2111 2.70012 27.5312 3.19739C27.5367 3.1982 27.5424 3.19941 27.5479 3.20032L28.5098 3.36047L28.54 3.36633L28.999 3.45813L29.0098 3.45227L29.0186 3.44739C31.8328 1.82215 34.2152 1.0565 36.1641 1.00891H36.5479L36.5693 1.00989L36.915 1.02551L36.9775 1.0304L37.2881 1.06458L37.3516 1.07336L37.5117 1.10168L37.5439 1.10852L37.6494 1.13L37.7412 1.15442L38.0439 1.24817L38.1143 1.27258C38.7484 1.52225 39.2844 1.97024 39.6318 2.5509L39.7695 2.80774V2.80872C40.7173 4.81938 41.0377 7.05098 40.6895 9.2345C40.6882 9.24259 40.687 9.25085 40.6855 9.25891L40.5908 9.7677C41.8917 11.4973 42.7017 13.5274 42.9307 15.6613C42.9316 15.6696 42.9329 15.6783 42.9336 15.6866L42.9814 16.2784C42.9829 16.2966 42.9849 16.3149 42.9854 16.3331L43 16.879C43.0002 16.888 43 16.8974 43 16.9064Z" fill="black" stroke="#FF5D5D" stroke-width="2" stroke-linecap="round" stroke-linejoin="round"/>
</svg>
